HIERARCHY
ROOT Hips
{
	OFFSET	0.00	0.00	0.00
	CHANNELS 6 Xposition Yposition Zposition Zrotation Xrotation Yrotation
	JOINT LeftUpLeg
	{
		OFFSET	 0.126116	-0.014019	-0.065224
		CHANNELS 3 Zrotation Xrotation Yrotation
		JOINT LeftLeg
		{
			OFFSET	 0.000000	 0.000000	 0.569914
			CHANNELS 3 Zrotation Xrotation Yrotation
			JOINT LeftFoot
			{
				OFFSET	 0.000000	 0.000000	 0.544423
				CHANNELS 3 Zrotation Xrotation Yrotation
				JOINT LeftToeBase
				{
					OFFSET	 0.000000	 0.000000	 0.207117
					CHANNELS 3 Zrotation Xrotation Yrotation
					End Site
					{
						OFFSET	 0.000000	 0.000000	 0.207117
					}
				}
			}
		}
	}
	JOINT RightUpLeg
	{
		OFFSET	-0.124023	-0.008373	-0.065224
		CHANNELS 3 Zrotation Xrotation Yrotation
		JOINT RightLeg
		{
			OFFSET	 0.000000	 0.000000	 0.570047
			CHANNELS 3 Zrotation Xrotation Yrotation
			JOINT RightFoot
			{
				OFFSET	 0.000000	 0.000000	 0.544354
				CHANNELS 3 Zrotation Xrotation Yrotation
				JOINT RightToeBase
				{
					OFFSET	 0.000000	 0.000000	 0.207540
					CHANNELS 3 Zrotation Xrotation Yrotation
					End Site
					{
						OFFSET	 0.000000	 0.000000	 0.207540
					}
				}
			}
		}
	}
	JOINT Spine
	{
		OFFSET	 0.000184	-0.007763	 0.117403
		CHANNELS 3 Zrotation Xrotation Yrotation
		JOINT Spine1
		{
			OFFSET	 0.000000	 0.000000	 0.137269
			CHANNELS 3 Zrotation Xrotation Yrotation
			JOINT Spine2
			{
				OFFSET	 0.000000	 0.000000	 0.156879
				CHANNELS 3 Zrotation Xrotation Yrotation
				JOINT LeftShoulder
				{
					OFFSET	 0.080501	-0.002496	 0.160144
					CHANNELS 3 Zrotation Xrotation Yrotation
					JOINT LeftArm
					{
						OFFSET	 0.000000	 0.000000	 0.164363
						CHANNELS 3 Zrotation Xrotation Yrotation
						JOINT LeftForeArm
						{
							OFFSET	 0.000000	 0.000000	 0.364576
							CHANNELS 3 Zrotation Xrotation Yrotation
							JOINT LeftHand
							{
								OFFSET	 0.000000	 0.000000	 0.360812
								CHANNELS 3 Zrotation Xrotation Yrotation
								JOINT LeftHandIndex1
								{
									OFFSET	 0.000000	 0.000000	 0.086006
									CHANNELS 3 Zrotation Xrotation Yrotation
									JOINT LeftHandIndex2
									{
										OFFSET	 0.000000	 0.000000	 0.047236
										CHANNELS 3 Zrotation Xrotation Yrotation
										JOINT LeftHandIndex3
										{
											OFFSET	-0.004284	-0.000551	 0.038166
											CHANNELS 3 Zrotation Xrotation Yrotation
											End Site
											{
												OFFSET	-0.004284	-0.000551	 0.038166
											}
										}
									}
								}
							}
						}
					}
				}
				JOINT Neck
				{
					OFFSET	 0.000000	 0.000000	 0.176489
					CHANNELS 3 Zrotation Xrotation Yrotation
					JOINT Head
					{
						OFFSET	 0.000000	-0.001747	 0.077940
						CHANNELS 3 Zrotation Xrotation Yrotation
						End Site
						{
							OFFSET	 0.000000	-0.001747	 0.077940
						}
					}
				}
				JOINT RightShoulder
				{
					OFFSET	-0.080363	 0.000306	 0.159706
					CHANNELS 3 Zrotation Xrotation Yrotation
					JOINT RightArm
					{
						OFFSET	 0.000000	 0.000000	 0.164196
						CHANNELS 3 Zrotation Xrotation Yrotation
						JOINT RightForeArm
						{
							OFFSET	 0.000000	 0.000000	 0.365611
							CHANNELS 3 Zrotation Xrotation Yrotation
							JOINT RightHand
							{
								OFFSET	 0.000000	 0.000000	 0.360648
								CHANNELS 3 Zrotation Xrotation Yrotation
								JOINT RightHandIndex1
								{
									OFFSET	 0.000000	 0.000000	 0.069977
									CHANNELS 3 Zrotation Xrotation Yrotation
									JOINT RightHandIndex2
									{
										OFFSET	 0.000000	 0.000000	 0.052305
										CHANNELS 3 Zrotation Xrotation Yrotation
										JOINT RightHandIndex3
										{
											OFFSET	 0.009002	-0.000782	 0.042196
											CHANNELS 3 Zrotation Xrotation Yrotation
											End Site
											{
												OFFSET	 0.009002	-0.000782	 0.042196
											}
										}
									}
								}
							}
						}
					}
				}
			}
		}
	}
}
MOTION
Frames:    6
Frame Time: 0.03333334
-0.083879	 3.698903	-0.318738	-22.070670	-2.120516	-1.227028	 7.330940	 20.947930	-176.893100	-3.538761	-11.629970	 1.492668	 3.765460	 84.419950	-0.337753	-2.295230	 40.247880	-0.282291	 5.189272	-35.850960	-177.658900	 0.546024	-41.599720	 4.615352	 128.710300	 89.746670	-123.123500	 2.368648	 31.481810	 0.068410	-0.525718	 2.234756	 2.292990	-0.414909	-3.571817	 0.822391	-0.333310	-6.468470	-0.522877	-91.776180	 78.527400	-180.000000	 35.827590	 60.510810	-54.057220	-9.019388	-4.960168	-36.238130	 0.395418	-33.697540	-6.447652	-3.812334	 37.924440	-2.927599	-2.450526	 36.184240	 0.754587	-1.378229	 35.397820	-2.634230	 1.224992	 2.177594	-4.963547	 1.284707	-9.845366	 3.638458	 89.782120	 78.203930	 180.000000	-37.557790	 72.284470	 34.960140	 0.202155	-6.792582	 21.826200	-7.568848	-34.484680	 11.603350	 6.437017	 35.671460	-0.771858	 2.830251	 35.756010	-7.813440	-2.350882	 35.473990	 5.254307
-0.115391	 3.629315	-0.321356	-21.368530	-1.941663	-1.323252	 7.668114	 24.127010	-177.729000	-3.050893	-11.612920	 1.620884	 4.841042	 83.826860	-0.771449	-2.236107	 44.649400	-0.408135	 5.006463	-35.919430	-177.416200	-0.055554	-37.780660	 3.677609	 152.305100	 89.369130	-147.051300	 2.360877	 32.715950	 0.096641	-0.830890	 2.027393	 1.961183	-0.696108	-3.710677	 0.616612	-0.510468	-6.566761	-0.627051	-91.776180	 78.527420	-180.000000	 37.181020	 60.944450	-55.361220	-9.122214	-4.992724	-36.674610	 0.260396	-34.569840	-6.515771	-3.812334	 37.924440	-2.927599	-2.450526	 36.184240	 0.754587	-1.378229	 35.397820	-2.634230	 1.253997	 2.075112	-5.027269	 1.304468	-9.931784	 4.341783	 89.782070	 78.203930	-180.000000	-35.871470	 73.172740	 33.068160	 0.324783	-6.643458	 20.324210	-8.041934	-35.372290	 11.710580	 6.437017	 35.671460	-0.771858	 2.830251	 35.756010	-7.813440	-2.350882	 35.473990	 5.254307
-0.152547	 3.552730	-0.324091	-20.623240	-2.112822	-1.293264	 8.295285	 27.533930	-179.461700	-1.921348	-11.581060	 1.837058	 5.827300	 80.746620	-0.520752	-2.170387	 48.397140	-0.528984	 4.803462	-34.602610	-177.752300	 1.287549	-39.293820	 4.649985	 45.199950	 89.690350	-39.074390	 2.376191	 30.137420	 0.038288	-1.164063	 1.844363	 1.838317	-0.984601	-3.733950	 0.297953	-0.568563	-6.333849	-0.779836	-91.776180	 78.527400	-180.000000	 39.290360	 62.102540	-56.111600	-9.122579	-4.886343	-35.502720	 0.160957	-35.305130	-6.579305	-3.812334	 37.924440	-2.927599	-2.450526	 36.184240	 0.754587	-1.378229	 35.397820	-2.634230	 1.414404	 2.351215	-5.122431	 1.399604	-10.103130	 4.899470	 89.782120	 78.203870	 180.000000	-34.656300	 73.741340	 31.708180	 0.152066	-6.468342	 18.888380	-8.523206	-36.143170	 11.801600	 6.437017	 35.671460	-0.771858	 2.830251	 35.756010	-7.813440	-2.350882	 35.473990	 5.254307
-0.192971	 3.472128	-0.325694	-19.595200	-2.265813	-1.112192	 9.124040	 30.749530	 178.128200	-0.922193	-11.559610	 1.969736	 5.503951	 74.055030	 0.959804	-2.106015	 51.349220	-0.635824	 3.795945	-32.421640	-178.700400	 3.839501	-42.593990	 6.311690	 3.917932	 87.803760	 3.248402	 2.384415	 28.442580	 0.001165	-1.671512	 1.481556	 1.547256	-1.377250	-3.766054	-0.028804	-0.574298	-6.012807	-1.022684	-91.776180	 78.527400	-180.000000	 41.670480	 63.857460	-55.873830	-8.770372	-4.807718	-32.767090	 0.417577	-35.938260	-6.626831	-3.812334	 37.924440	-2.927599	-2.450526	 36.184240	 0.754587	-1.378229	 35.397820	-2.634230	 1.599002	 2.898932	-5.083047	 1.483544	-10.173880	 5.120660	 89.782120	 78.203870	 180.000000	-32.576010	 74.111630	 29.053230	 0.114693	-6.300942	 17.913360	-8.739147	-36.764660	 11.882230	 6.437017	 35.671460	-0.771858	 2.830251	 35.756010	-7.813440	-2.350882	 35.473990	 5.254307
-0.233645	 3.396153	-0.321230	-18.238620	-2.602520	-1.192412	 7.577549	 27.208440	 176.827100	-1.002106	-23.182040	 1.746409	 3.695120	 66.781150	 0.178854	-2.142523	 49.745720	-0.576353	 2.180606	-30.144440	-179.238900	 5.131047	-46.185470	 6.814488	 3.539596	 84.378170	 3.057882	 2.395820	 25.405630	-0.063325	-2.021028	 1.063431	 1.424346	-1.725620	-3.621972	-0.214150	-0.854961	-5.713860	-1.164687	-91.776180	 78.527400	-180.000000	 44.017490	 66.056950	-55.806130	-8.255142	-4.795584	-28.287680	 1.315202	-36.385520	-6.666485	-3.812334	 37.924440	-2.927599	-2.450526	 36.184240	 0.754587	-1.378229	 35.397820	-2.634230	 1.689563	 3.047686	-4.873549	 1.494846	-9.842176	 4.957186	 89.782120	 78.203870	 180.000000	-32.134190	 74.116030	 28.608670	 0.167782	-6.124863	 17.366470	-8.599892	-37.230170	 11.946020	 6.437017	 35.671460	-0.771858	 2.830251	 35.756010	-7.813440	-2.350882	 35.473990	 5.254307
-0.276293	 3.324223	-0.312699	-17.036380	-2.915337	-0.682897	 7.746052	 15.981530	 173.615700	-1.640153	-46.067180	 0.813536	 1.731769	 57.941420	 0.657427	-2.304294	 39.441300	-0.260757	 1.104808	-26.675150	 179.386800	 6.037570	-48.011760	 7.058116	 3.358740	 84.418150	 3.011958	 2.406643	 19.874870	-0.175588	-2.275400	 1.224512	 0.980080	-1.962601	-3.635399	-0.427167	-0.907231	-5.536227	-1.237195	-91.776180	 78.527420	-180.000000	 44.138000	 68.737460	-53.852610	-8.247427	-4.653374	-22.991600	 2.606312	-36.723430	-6.673862	-3.812334	 37.924440	-2.927599	-2.450526	 36.184240	 0.754587	-1.378229	 35.397820	-2.634230	 1.585826	 2.896376	-4.689376	 1.306888	-9.255267	 4.373419	 89.782120	 78.203870	 180.000000	-33.498810	 73.385890	 30.801590	-0.385385	-5.999683	 16.887640	-8.597157	-37.512330	 11.987040	 6.437017	 35.671460	-0.771858	 2.830251	 35.756010	-7.813440	-2.350882	 35.473990	 5.254307
